<mxfile host="Electron" modified="2024-09-24T13:36:52.055Z" agent="Mozilla/5.0 (Windows NT 10.0; Win64; x64) AppleWebKit/537.36 (KHTML, like Gecko) draw.io/23.0.2 Chrome/120.0.6099.109 Electron/28.1.0 Safari/537.36" etag="jFzuMs7g5FnYFcrAODYU" version="23.0.2" type="device">
  <diagram name="Page-1" id="13e1069c-82ec-6db2-03f1-153e76fe0fe0">
    <mxGraphModel dx="1105" dy="654" grid="1" gridSize="10" guides="1" tooltips="1" connect="1" arrows="1" fold="1" page="1" pageScale="1" pageWidth="1100" pageHeight="850" background="none" math="0" shadow="0">
      <root>
        <mxCell id="0" />
        <mxCell id="1" parent="0" />
        <mxCell id="7baba1c4bc27f4b0-3" value="DB" style="shape=umlLifeline;perimeter=lifelinePerimeter;whiteSpace=wrap;html=1;container=1;collapsible=0;recursiveResize=0;outlineConnect=0;rounded=1;shadow=0;comic=0;labelBackgroundColor=none;strokeWidth=1;fontFamily=Verdana;fontSize=12;align=center;movable=1;resizable=1;rotatable=1;deletable=1;editable=1;locked=0;connectable=1;" parent="1" vertex="1">
          <mxGeometry x="280" y="80" width="80" height="560" as="geometry" />
        </mxCell>
        <mxCell id="7baba1c4bc27f4b0-8" value="Employé" style="shape=umlLifeline;perimeter=lifelinePerimeter;whiteSpace=wrap;html=1;container=1;collapsible=0;recursiveResize=0;outlineConnect=0;rounded=1;shadow=0;comic=0;labelBackgroundColor=none;strokeWidth=1;fontFamily=Verdana;fontSize=12;align=center;movable=1;resizable=1;rotatable=1;deletable=1;editable=1;locked=0;connectable=1;" parent="1" vertex="1">
          <mxGeometry x="120" y="80" width="80" height="560" as="geometry" />
        </mxCell>
        <mxCell id="7baba1c4bc27f4b0-4" value="CRON" style="shape=umlLifeline;perimeter=lifelinePerimeter;whiteSpace=wrap;html=1;container=1;collapsible=0;recursiveResize=0;outlineConnect=0;rounded=1;shadow=0;comic=0;labelBackgroundColor=none;strokeWidth=1;fontFamily=Verdana;fontSize=12;align=center;movable=1;resizable=1;rotatable=1;deletable=1;editable=1;locked=0;connectable=1;" parent="1" vertex="1">
          <mxGeometry x="440" y="80" width="80" height="560" as="geometry" />
        </mxCell>
        <mxCell id="8ppj3Jb1FmL6WpB68mss-22" value="Backend" style="shape=umlLifeline;perimeter=lifelinePerimeter;whiteSpace=wrap;html=1;container=1;collapsible=0;recursiveResize=0;outlineConnect=0;rounded=1;shadow=0;comic=0;labelBackgroundColor=none;strokeWidth=1;fontFamily=Verdana;fontSize=12;align=center;size=40;movable=1;resizable=1;rotatable=1;deletable=1;editable=1;locked=0;connectable=1;" parent="1" vertex="1">
          <mxGeometry x="600" y="80" width="80" height="560" as="geometry" />
        </mxCell>
        <mxCell id="8ppj3Jb1FmL6WpB68mss-33" value="" style="points=[];perimeter=orthogonalPerimeter;rounded=0;shadow=0;comic=0;labelBackgroundColor=default;strokeWidth=1;fontFamily=Verdana;fontSize=13;align=center;fontColor=default;labelBorderColor=none;html=1;fontStyle=0;editable=1;movable=1;resizable=1;rotatable=1;deletable=1;locked=0;connectable=1;spacingTop=0;" parent="1" vertex="1">
          <mxGeometry x="315" y="479" width="10" height="40" as="geometry" />
        </mxCell>
        <mxCell id="IF16hSgS9u4WUkAZ2Mp4-2" value="Manager" style="shape=umlLifeline;perimeter=lifelinePerimeter;whiteSpace=wrap;html=1;container=1;collapsible=0;recursiveResize=0;outlineConnect=0;rounded=1;shadow=0;comic=0;labelBackgroundColor=none;strokeWidth=1;fontFamily=Verdana;fontSize=12;align=center;size=40;movable=1;resizable=1;rotatable=1;deletable=1;editable=1;locked=0;connectable=1;" vertex="1" parent="1">
          <mxGeometry x="760" y="80" width="80" height="560" as="geometry" />
        </mxCell>
        <mxCell id="IF16hSgS9u4WUkAZ2Mp4-5" value="" style="points=[];perimeter=orthogonalPerimeter;rounded=0;shadow=0;comic=0;labelBackgroundColor=default;strokeWidth=1;fontFamily=Verdana;fontSize=13;align=center;fontColor=default;labelBorderColor=none;html=1;fontStyle=0;editable=1;movable=1;resizable=1;rotatable=1;deletable=1;locked=0;connectable=1;spacingTop=0;" vertex="1" parent="1">
          <mxGeometry x="315" y="160" width="10" height="40" as="geometry" />
        </mxCell>
        <mxCell id="IF16hSgS9u4WUkAZ2Mp4-3" value="Demande ABS&lt;br&gt;(Statut initial)" style="verticalAlign=bottom;endArrow=block;labelBackgroundColor=default;fontFamily=Verdana;fontSize=13;edgeStyle=elbowEdgeStyle;elbow=horizontal;fontColor=default;labelBorderColor=none;html=1;fontStyle=0;shadow=0;editable=1;movable=1;resizable=1;rotatable=1;deletable=1;locked=0;connectable=1;spacingTop=0;" edge="1" parent="1">
          <mxGeometry relative="1" as="geometry">
            <mxPoint x="160" y="160" as="sourcePoint" />
            <mxPoint x="320" y="160" as="targetPoint" />
          </mxGeometry>
        </mxCell>
        <mxCell id="IF16hSgS9u4WUkAZ2Mp4-7" value="" style="points=[];perimeter=orthogonalPerimeter;rounded=0;shadow=0;comic=0;labelBackgroundColor=default;strokeWidth=1;fontFamily=Verdana;fontSize=13;align=center;fontColor=default;labelBorderColor=none;html=1;fontStyle=0;editable=1;movable=1;resizable=1;rotatable=1;deletable=1;locked=0;connectable=1;spacingTop=0;" vertex="1" parent="1">
          <mxGeometry x="475" y="200" width="10" height="40" as="geometry" />
        </mxCell>
        <mxCell id="IF16hSgS9u4WUkAZ2Mp4-6" value="Vérification nb. jour" style="verticalAlign=bottom;endArrow=block;labelBackgroundColor=default;fontFamily=Verdana;fontSize=13;edgeStyle=elbowEdgeStyle;elbow=vertical;fontColor=default;labelBorderColor=none;html=1;fontStyle=0;shadow=0;editable=1;movable=1;resizable=1;rotatable=1;deletable=1;locked=0;connectable=1;spacingTop=0;" edge="1" parent="1">
          <mxGeometry relative="1" as="geometry">
            <mxPoint x="320" y="200" as="sourcePoint" />
            <mxPoint x="480" y="200" as="targetPoint" />
          </mxGeometry>
        </mxCell>
        <mxCell id="IF16hSgS9u4WUkAZ2Mp4-9" value="" style="points=[];perimeter=orthogonalPerimeter;rounded=0;shadow=0;comic=0;labelBackgroundColor=default;strokeWidth=1;fontFamily=Verdana;fontSize=13;align=center;fontColor=default;labelBorderColor=none;html=1;fontStyle=0;editable=1;movable=1;resizable=1;rotatable=1;deletable=1;locked=0;connectable=1;spacingTop=0;" vertex="1" parent="1">
          <mxGeometry x="635" y="240" width="10" height="120" as="geometry" />
        </mxCell>
        <mxCell id="IF16hSgS9u4WUkAZ2Mp4-8" value="Vérifie jour début/fin&lt;br&gt;(férié/weekend)" style="verticalAlign=bottom;endArrow=block;labelBackgroundColor=default;fontFamily=Verdana;fontSize=13;edgeStyle=elbowEdgeStyle;elbow=horizontal;fontColor=default;labelBorderColor=none;html=1;fontStyle=0;shadow=0;editable=1;movable=1;resizable=1;rotatable=1;deletable=1;locked=0;connectable=1;spacingTop=0;" edge="1" parent="1">
          <mxGeometry relative="1" as="geometry">
            <mxPoint x="480" y="240" as="sourcePoint" />
            <mxPoint x="640" y="240" as="targetPoint" />
          </mxGeometry>
        </mxCell>
        <mxCell id="IF16hSgS9u4WUkAZ2Mp4-11" value="" style="points=[];perimeter=orthogonalPerimeter;rounded=0;shadow=0;comic=0;labelBackgroundColor=default;strokeWidth=1;fontFamily=Verdana;fontSize=13;align=center;fontColor=default;labelBorderColor=none;html=1;fontStyle=0;editable=1;movable=1;resizable=1;rotatable=1;deletable=1;locked=0;connectable=1;spacingTop=0;" vertex="1" parent="1">
          <mxGeometry x="315" y="359" width="10" height="40" as="geometry" />
        </mxCell>
        <mxCell id="IF16hSgS9u4WUkAZ2Mp4-10" value="Mise à jour demande&lt;br&gt;(Statut en attente de validation)" style="verticalAlign=bottom;endArrow=open;dashed=1;endSize=8;labelBackgroundColor=default;fontFamily=Verdana;fontSize=13;fontColor=default;labelBorderColor=none;html=1;fontStyle=0;shadow=0;editable=1;movable=1;resizable=1;rotatable=1;deletable=1;locked=0;connectable=1;spacingTop=0;" edge="1" parent="1">
          <mxGeometry relative="1" as="geometry">
            <mxPoint x="320" y="359" as="targetPoint" />
            <mxPoint x="635" y="359" as="sourcePoint" />
          </mxGeometry>
        </mxCell>
        <mxCell id="IF16hSgS9u4WUkAZ2Mp4-13" value="" style="points=[];perimeter=orthogonalPerimeter;rounded=0;shadow=0;comic=0;labelBackgroundColor=default;strokeWidth=1;fontFamily=Verdana;fontSize=13;align=center;fontColor=default;labelBorderColor=none;html=1;fontStyle=0;editable=1;movable=1;resizable=1;rotatable=1;deletable=1;locked=0;connectable=1;spacingTop=0;" vertex="1" parent="1">
          <mxGeometry x="795" y="399" width="10" height="120" as="geometry" />
        </mxCell>
        <mxCell id="IF16hSgS9u4WUkAZ2Mp4-12" value="Affichage demande&lt;br&gt;en attente" style="verticalAlign=bottom;endArrow=block;endSize=8;labelBackgroundColor=default;fontFamily=Verdana;fontSize=13;fontColor=default;labelBorderColor=none;html=1;fontStyle=0;shadow=0;editable=1;movable=1;resizable=1;rotatable=1;deletable=1;locked=0;connectable=1;spacingTop=0;endFill=1;" edge="1" parent="1">
          <mxGeometry x="0.004" relative="1" as="geometry">
            <mxPoint x="800" y="399" as="targetPoint" />
            <mxPoint x="315" y="399" as="sourcePoint" />
            <mxPoint as="offset" />
          </mxGeometry>
        </mxCell>
        <mxCell id="IF16hSgS9u4WUkAZ2Mp4-15" value="" style="points=[];perimeter=orthogonalPerimeter;rounded=0;shadow=0;comic=0;labelBackgroundColor=default;strokeWidth=1;fontFamily=Verdana;fontSize=13;align=center;fontColor=default;labelBorderColor=none;html=1;fontStyle=0;editable=1;movable=1;resizable=1;rotatable=1;deletable=1;locked=0;connectable=1;spacingTop=0;" vertex="1" parent="1">
          <mxGeometry x="635" y="439" width="10" height="40" as="geometry" />
        </mxCell>
        <mxCell id="IF16hSgS9u4WUkAZ2Mp4-14" value="Validation&lt;br&gt;(décompte jour)" style="verticalAlign=bottom;endArrow=open;dashed=1;endSize=8;labelBackgroundColor=default;fontFamily=Verdana;fontSize=13;fontColor=default;labelBorderColor=none;html=1;fontStyle=0;shadow=0;editable=1;movable=1;resizable=1;rotatable=1;deletable=1;locked=0;connectable=1;spacingTop=0;" edge="1" parent="1">
          <mxGeometry x="0.004" relative="1" as="geometry">
            <mxPoint x="640" y="439" as="targetPoint" />
            <mxPoint x="795" y="439" as="sourcePoint" />
            <mxPoint as="offset" />
          </mxGeometry>
        </mxCell>
        <mxCell id="IF16hSgS9u4WUkAZ2Mp4-20" value="" style="points=[];perimeter=orthogonalPerimeter;rounded=0;shadow=0;comic=0;labelBackgroundColor=default;strokeWidth=1;fontFamily=Verdana;fontSize=13;align=center;fontColor=default;labelBorderColor=none;html=1;fontStyle=0;editable=1;movable=1;resizable=1;rotatable=1;deletable=1;locked=0;connectable=1;spacingTop=0;" vertex="1" parent="1">
          <mxGeometry x="155" y="519" width="10" height="40" as="geometry" />
        </mxCell>
        <mxCell id="IF16hSgS9u4WUkAZ2Mp4-16" value="Demande validée&lt;br&gt;(Statut validé)" style="verticalAlign=bottom;endArrow=open;dashed=1;endSize=8;labelBackgroundColor=default;fontFamily=Verdana;fontSize=13;fontColor=default;labelBorderColor=none;html=1;fontStyle=0;shadow=0;editable=1;movable=1;resizable=1;rotatable=1;deletable=1;locked=0;connectable=1;spacingTop=0;" edge="1" parent="1">
          <mxGeometry x="0.004" relative="1" as="geometry">
            <mxPoint x="320" y="479" as="targetPoint" />
            <mxPoint x="635" y="479" as="sourcePoint" />
            <mxPoint as="offset" />
          </mxGeometry>
        </mxCell>
        <mxCell id="IF16hSgS9u4WUkAZ2Mp4-19" value="Demande refusé&lt;br&gt;(Statut refusé)" style="verticalAlign=bottom;endArrow=open;dashed=1;endSize=8;labelBackgroundColor=default;fontFamily=Verdana;fontSize=13;fontColor=default;labelBorderColor=none;html=1;fontStyle=0;shadow=0;editable=1;movable=1;resizable=1;rotatable=1;deletable=1;locked=0;connectable=1;spacingTop=0;" edge="1" parent="1">
          <mxGeometry x="0.004" relative="1" as="geometry">
            <mxPoint x="320" y="519" as="targetPoint" />
            <mxPoint x="795" y="519" as="sourcePoint" />
            <mxPoint as="offset" />
          </mxGeometry>
        </mxCell>
        <mxCell id="IF16hSgS9u4WUkAZ2Mp4-21" value="" style="shape=umlDestroy;whiteSpace=wrap;html=1;strokeWidth=2;targetShapes=umlLifeline;fontFamily=Verdana;fontSize=13;fontColor=default;" vertex="1" parent="1">
          <mxGeometry x="145" y="559" width="20" height="20" as="geometry" />
        </mxCell>
        <mxCell id="IF16hSgS9u4WUkAZ2Mp4-22" value="Affichage ABS" style="verticalAlign=bottom;endArrow=open;dashed=1;endSize=8;labelBackgroundColor=default;fontFamily=Verdana;fontSize=13;fontColor=default;labelBorderColor=none;html=1;fontStyle=0;shadow=0;editable=1;movable=1;resizable=1;rotatable=1;deletable=1;locked=0;connectable=1;spacingTop=0;" edge="1" parent="1">
          <mxGeometry x="0.004" relative="1" as="geometry">
            <mxPoint x="160" y="519" as="targetPoint" />
            <mxPoint x="324.5" y="519" as="sourcePoint" />
            <mxPoint as="offset" />
          </mxGeometry>
        </mxCell>
        <mxCell id="IF16hSgS9u4WUkAZ2Mp4-24" value="Statut refusé" style="verticalAlign=bottom;endArrow=open;dashed=1;endSize=8;labelBackgroundColor=default;fontFamily=Verdana;fontSize=13;fontColor=default;labelBorderColor=none;html=1;fontStyle=0;shadow=0;editable=1;movable=1;resizable=1;rotatable=1;deletable=1;locked=0;connectable=1;spacingTop=0;" edge="1" parent="1">
          <mxGeometry x="0.004" relative="1" as="geometry">
            <mxPoint x="320" y="230.43" as="targetPoint" />
            <mxPoint x="475" y="230" as="sourcePoint" />
            <mxPoint as="offset" />
          </mxGeometry>
        </mxCell>
        <mxCell id="IF16hSgS9u4WUkAZ2Mp4-25" value="" style="points=[];perimeter=orthogonalPerimeter;rounded=0;shadow=0;comic=0;labelBackgroundColor=default;strokeWidth=1;fontFamily=Verdana;fontSize=13;align=center;fontColor=default;labelBorderColor=none;html=1;fontStyle=0;editable=1;movable=1;resizable=1;rotatable=1;deletable=1;locked=0;connectable=1;spacingTop=0;" vertex="1" parent="1">
          <mxGeometry x="315" y="230" width="10" height="30" as="geometry" />
        </mxCell>
        <mxCell id="IF16hSgS9u4WUkAZ2Mp4-27" value="" style="points=[];perimeter=orthogonalPerimeter;rounded=0;shadow=0;comic=0;labelBackgroundColor=default;strokeWidth=1;fontFamily=Verdana;fontSize=13;align=center;fontColor=default;labelBorderColor=none;html=1;fontStyle=0;editable=1;movable=1;resizable=1;rotatable=1;deletable=1;locked=0;connectable=1;spacingTop=0;" vertex="1" parent="1">
          <mxGeometry x="155" y="260" width="10" height="40" as="geometry" />
        </mxCell>
        <mxCell id="IF16hSgS9u4WUkAZ2Mp4-26" value="Affichage ABS" style="verticalAlign=bottom;endArrow=open;dashed=1;endSize=8;labelBackgroundColor=default;fontFamily=Verdana;fontSize=13;fontColor=default;labelBorderColor=none;html=1;fontStyle=0;shadow=0;editable=1;movable=1;resizable=1;rotatable=1;deletable=1;locked=0;connectable=1;spacingTop=0;" edge="1" parent="1">
          <mxGeometry x="0.004" relative="1" as="geometry">
            <mxPoint x="160" y="260" as="targetPoint" />
            <mxPoint x="324.5" y="260" as="sourcePoint" />
            <mxPoint as="offset" />
          </mxGeometry>
        </mxCell>
        <mxCell id="IF16hSgS9u4WUkAZ2Mp4-28" value="Statut refusé" style="verticalAlign=bottom;endArrow=open;dashed=1;endSize=8;labelBackgroundColor=default;fontFamily=Verdana;fontSize=13;fontColor=default;labelBorderColor=none;html=1;fontStyle=0;shadow=0;editable=1;movable=1;resizable=1;rotatable=1;deletable=1;locked=0;connectable=1;spacingTop=0;" edge="1" parent="1">
          <mxGeometry x="0.004" relative="1" as="geometry">
            <mxPoint x="320" y="290.43" as="targetPoint" />
            <mxPoint x="640" y="290" as="sourcePoint" />
            <mxPoint as="offset" />
          </mxGeometry>
        </mxCell>
        <mxCell id="IF16hSgS9u4WUkAZ2Mp4-29" value="" style="points=[];perimeter=orthogonalPerimeter;rounded=0;shadow=0;comic=0;labelBackgroundColor=default;strokeWidth=1;fontFamily=Verdana;fontSize=13;align=center;fontColor=default;labelBorderColor=none;html=1;fontStyle=0;editable=1;movable=1;resizable=1;rotatable=1;deletable=1;locked=0;connectable=1;spacingTop=0;" vertex="1" parent="1">
          <mxGeometry x="315" y="290" width="10" height="30" as="geometry" />
        </mxCell>
        <mxCell id="IF16hSgS9u4WUkAZ2Mp4-30" value="" style="points=[];perimeter=orthogonalPerimeter;rounded=0;shadow=0;comic=0;labelBackgroundColor=default;strokeWidth=1;fontFamily=Verdana;fontSize=13;align=center;fontColor=default;labelBorderColor=none;html=1;fontStyle=0;editable=1;movable=1;resizable=1;rotatable=1;deletable=1;locked=0;connectable=1;spacingTop=0;" vertex="1" parent="1">
          <mxGeometry x="155" y="320" width="10" height="40" as="geometry" />
        </mxCell>
        <mxCell id="IF16hSgS9u4WUkAZ2Mp4-31" value="Affichage ABS" style="verticalAlign=bottom;endArrow=open;dashed=1;endSize=8;labelBackgroundColor=default;fontFamily=Verdana;fontSize=13;fontColor=default;labelBorderColor=none;html=1;fontStyle=0;shadow=0;editable=1;movable=1;resizable=1;rotatable=1;deletable=1;locked=0;connectable=1;spacingTop=0;" edge="1" parent="1">
          <mxGeometry x="0.004" relative="1" as="geometry">
            <mxPoint x="160" y="320" as="targetPoint" />
            <mxPoint x="324.5" y="320" as="sourcePoint" />
            <mxPoint as="offset" />
          </mxGeometry>
        </mxCell>
      </root>
    </mxGraphModel>
  </diagram>
</mxfile>
